<svg xmlns="http://www.w3.org/2000/svg" viewBox="0 0 32 32">
  <!-- Grass Tile -->
  <rect width="32" height="32" fill="#4CAF50" />
  
  <!-- Grass Texture -->
  <g fill="#81C784" opacity="0.5">
    <!-- Random grass patches -->
    <circle cx="5" cy="6" r="2" />
    <circle cx="12" cy="8" r="3" />
    <circle cx="22" cy="5" r="2.5" />
    <circle cx="28" cy="12" r="2" />
    <circle cx="20" cy="18" r="2.5" />
    <circle cx="7" cy="20" r="2" />
    <circle cx="16" cy="24" r="3" />
    <circle cx="28" cy="25" r="2.5" />
    
    <!-- Grass blades -->
    <path d="M3,18 L5,14 L7,18" stroke="#388E3C" stroke-width="0.5" fill="none" />
    <path d="M10,28 L12,24 L14,28" stroke="#388E3C" stroke-width="0.5" fill="none" />
    <path d="M22,26 L24,22 L26,26" stroke="#388E3C" stroke-width="0.5" fill="none" />
    <path d="M24,10 L26,6 L28,10" stroke="#388E3C" stroke-width="0.5" fill="none" />
    <path d="M15,14 L17,10 L19,14" stroke="#388E3C" stroke-width="0.5" fill="none" />
  </g>
  
  <!-- Animation effect: subtle wind -->
  <g id="wind-animation">
    <animateTransform
      attributeName="transform"
      type="rotate"
      from="0 16 16"
      to="2 16 16"
      dur="3s"
      repeatCount="indefinite"
      additive="sum" />
    
    <path d="M8,12 C10,10 12,12 14,10" stroke="#388E3C" stroke-width="0.5" fill="none" opacity="0.7" />
    <path d="M18,20 C20,18 22,20 24,18" stroke="#388E3C" stroke-width="0.5" fill="none" opacity="0.7" />
    <path d="M5,24 C7,22 9,24 11,22" stroke="#388E3C" stroke-width="0.5" fill="none" opacity="0.7" />
    <path d="M22,8 C24,6 26,8 28,6" stroke="#388E3C" stroke-width="0.5" fill="none" opacity="0.7" />
  </g>
</svg>
